# This file uses centimeters as units for non-parametric coordinates.

mtllib bunny.mtl
g default
v -1.069530 -0.500000 1.000307
v 1.069530 -0.500000 1.000307
v -1.069530 0.500000 1.000307
v 1.069530 0.500000 1.000307
v -1.069530 0.500000 -1.000307
v 1.069530 0.500000 -1.000307
v -1.069530 -0.500000 -1.000307
v 1.069530 -0.500000 -1.000307
v -0.686216 1.398029 0.641803
v 0.686216 1.398029 0.641803
v 0.686216 1.398029 -0.641803
v -0.686216 1.398029 -0.641803
v -0.442796 1.128625 0.234907
v 0.011008 1.250221 0.234907
v -0.999217 2.732283 0.357310
v -0.308947 2.917240 0.357310
v -0.999217 2.732283 -0.357310
v -0.308947 2.917240 -0.357310
v -0.442796 1.128625 -0.234907
v 0.011008 1.250221 -0.234907
v -0.960050 2.976545 0.256259
v -0.464997 3.109195 0.256259
v -0.464997 3.109195 -0.256259
v -0.960050 2.976545 -0.256259
v -0.960050 2.976545 0.256259
v -0.464997 3.109195 0.256259
v -0.464997 3.109195 -0.256259
v -0.960050 2.976545 -0.256259
v -0.047172 1.250221 0.234907
v 0.406632 1.128624 0.234907
v 0.272783 2.917240 0.357310
v 0.963052 2.732283 0.357310
v 0.272783 2.917240 -0.357310
v 0.963052 2.732283 -0.357310
v -0.047172 1.250221 -0.234907
v 0.406632 1.128624 -0.234907
v 0.428833 3.109194 0.256259
v 0.923886 2.976545 0.256259
v 0.923886 2.976545 -0.256259
v 0.428833 3.109194 -0.256259
v 0.428833 3.109194 0.256259
v 0.923886 2.976545 0.256259
v 0.923886 2.976545 -0.256259
v 0.428833 3.109194 -0.256259
vt 0.159181 0.260465
vt 0.278948 0.260465
vt 0.159181 0.380233
vt 0.278948 0.380233
vt 0.159181 0.500000
vt 0.278948 0.500000
vt 0.159181 0.619767
vt 0.278948 0.619767
vt 0.159181 0.739535
vt 0.278948 0.739535
vt 0.398716 0.260465
vt 0.398716 0.380233
vt 0.039413 0.260465
vt 0.039413 0.380233
vt 0.159181 0.380233
vt 0.278948 0.380233
vt 0.278948 0.500000
vt 0.159181 0.500000
vt 0.159181 0.260465
vt 0.278948 0.260465
vt 0.278948 0.380233
vt 0.159181 0.380233
vt 0.159181 0.380233
vt 0.278948 0.380233
vt 0.278948 0.500000
vt 0.159181 0.500000
vt 0.159181 0.500000
vt 0.278948 0.500000
vt 0.278948 0.619767
vt 0.159181 0.619767
vt 0.278948 0.739535
vt 0.159181 0.739535
vt 0.398716 0.260465
vt 0.398716 0.380233
vt 0.039413 0.260465
vt 0.039413 0.380233
vt 0.278948 0.380233
vt 0.159181 0.380233
vt 0.278948 0.500000
vt 0.159181 0.500000
vt 0.159181 0.260465
vt 0.278948 0.260465
vt 0.278948 0.380233
vt 0.159181 0.380233
vt 0.159181 0.380233
vt 0.278948 0.380233
vt 0.278948 0.500000
vt 0.159181 0.500000
vt 0.159181 0.500000
vt 0.278948 0.500000
vt 0.278948 0.619767
vt 0.159181 0.619767
vt 0.278948 0.739535
vt 0.159181 0.739535
vt 0.398716 0.260465
vt 0.398716 0.380233
vt 0.039413 0.260465
vt 0.039413 0.380233
vt 0.278948 0.380233
vt 0.159181 0.380233
vt 0.278948 0.500000
vt 0.159181 0.500000
vt 0.460159 0.272868
vt 0.914422 0.272868
vt 0.914422 0.512203
vt 0.460159 0.512203
vt 0.833019 0.727132
vt 0.541561 0.727132
vn 0.000000 0.000000 1.000000
vn 0.000000 0.000000 1.000000
vn 0.000000 0.000000 1.000000
vn 0.000000 0.000000 1.000000
vn 0.000000 1.000000 0.000000
vn 0.000000 1.000000 0.000000
vn 0.000000 1.000000 0.000000
vn 0.000000 1.000000 0.000000
vn 0.000000 0.000000 -1.000000
vn 0.000000 0.000000 -1.000000
vn 0.000000 0.000000 -1.000000
vn 0.000000 0.000000 -1.000000
vn 0.000000 -1.000000 0.000000
vn 0.000000 -1.000000 0.000000
vn 0.000000 -1.000000 0.000000
vn 0.000000 -1.000000 0.000000
vn 1.000000 0.000000 0.000000
vn 1.000000 0.000000 0.000000
vn 1.000000 0.000000 0.000000
vn 1.000000 0.000000 0.000000
vn -1.000000 0.000000 0.000000
vn -1.000000 0.000000 0.000000
vn -1.000000 0.000000 0.000000
vn -1.000000 0.000000 0.000000
vn 0.000000 0.370760 0.928729
vn 0.000000 0.370760 0.928729
vn 0.000000 0.370760 0.928729
vn 0.000000 0.370760 0.928729
vn 0.919721 0.392573 0.000000
vn 0.919721 0.392573 0.000000
vn 0.919721 0.392573 0.000000
vn 0.919721 0.392573 0.000000
vn 0.000000 0.370760 -0.928729
vn 0.000000 0.370760 -0.928729
vn 0.000000 0.370760 -0.928729
vn 0.000000 0.370760 -0.928729
vn -0.919721 0.392573 0.000000
vn -0.919721 0.392573 0.000000
vn -0.919721 0.392573 0.000000
vn -0.919721 0.392573 0.000000
vn 0.018664 -0.069653 0.997397
vn 0.018664 -0.069653 0.997397
vn 0.018664 -0.069653 0.997397
vn 0.018664 -0.069653 0.997397
vn -0.258819 0.965926 0.000000
vn -0.258819 0.965926 0.000000
vn -0.258819 0.965926 0.000000
vn -0.258819 0.965926 0.000000
vn 0.018664 -0.069653 -0.997397
vn 0.018664 -0.069653 -0.997397
vn 0.018664 -0.069653 -0.997397
vn 0.018664 -0.069653 -0.997397
vn 0.258819 -0.965926 0.000000
vn 0.258819 -0.965926 0.000000
vn 0.258819 -0.965926 0.000000
vn 0.258819 -0.965926 0.000000
vn 0.982075 0.188492 0.000000
vn 0.982075 0.188492 0.000000
vn 0.982075 0.188492 0.000000
vn 0.982075 0.188492 0.000000
vn -0.944748 -0.327799 0.000000
vn -0.944748 -0.327799 0.000000
vn -0.944748 -0.327799 0.000000
vn -0.944748 -0.327799 0.000000
vn -0.105723 0.394564 0.912766
vn -0.105723 0.394564 0.912766
vn -0.105723 0.394564 0.912766
vn -0.105723 0.394564 0.912766
vn 0.775941 0.630806 0.000000
vn 0.775941 0.630806 0.000000
vn 0.775941 0.630806 0.000000
vn 0.775941 0.630806 0.000000
vn -0.105723 0.394564 -0.912766
vn -0.105723 0.394564 -0.912766
vn -0.105723 0.394564 -0.912766
vn -0.105723 0.394564 -0.912766
vn -0.987388 0.158322 0.000000
vn -0.987388 0.158322 0.000000
vn -0.987388 0.158322 0.000000
vn -0.987388 0.158322 0.000000
vn 0.000000 0.000000 0.000000
vn 0.000000 0.000000 0.000000
vn 0.000000 0.000000 0.000000
vn 0.000000 0.000000 0.000000
vn 0.000000 0.000000 0.000000
vn 0.000000 0.000000 0.000000
vn 0.000000 0.000000 0.000000
vn 0.000000 0.000000 0.000000
vn 0.000000 0.000000 0.000000
vn 0.000000 0.000000 0.000000
vn 0.000000 0.000000 0.000000
vn 0.000000 0.000000 0.000000
vn 0.000000 0.000000 0.000000
vn 0.000000 0.000000 0.000000
vn 0.000000 0.000000 0.000000
vn 0.000000 0.000000 0.000000
vn -0.018664 -0.069653 0.997397
vn -0.018664 -0.069653 0.997397
vn -0.018664 -0.069653 0.997397
vn -0.018664 -0.069653 0.997397
vn 0.258819 0.965926 0.000000
vn 0.258819 0.965926 0.000000
vn 0.258819 0.965926 0.000000
vn 0.258819 0.965926 0.000000
vn -0.018663 -0.069653 -0.997397
vn -0.018663 -0.069653 -0.997397
vn -0.018663 -0.069653 -0.997397
vn -0.018663 -0.069653 -0.997397
vn -0.258819 -0.965926 0.000000
vn -0.258819 -0.965926 0.000000
vn -0.258819 -0.965926 0.000000
vn -0.258819 -0.965926 0.000000
vn 0.944748 -0.327799 0.000000
vn 0.944748 -0.327799 0.000000
vn 0.944748 -0.327799 0.000000
vn 0.944748 -0.327799 0.000000
vn -0.982075 0.188492 0.000000
vn -0.982075 0.188492 0.000000
vn -0.982075 0.188492 0.000000
vn -0.982075 0.188492 0.000000
vn 0.105723 0.394564 0.912766
vn 0.105723 0.394564 0.912766
vn 0.105723 0.394564 0.912766
vn 0.105723 0.394564 0.912766
vn 0.987387 0.158323 0.000000
vn 0.987387 0.158323 0.000000
vn 0.987387 0.158323 0.000000
vn 0.987387 0.158323 0.000000
vn 0.105723 0.394564 -0.912766
vn 0.105723 0.394564 -0.912766
vn 0.105723 0.394564 -0.912766
vn 0.105723 0.394564 -0.912766
vn -0.775942 0.630804 0.000000
vn -0.775942 0.630804 0.000000
vn -0.775942 0.630804 0.000000
vn -0.775942 0.630804 0.000000
vn 0.000000 0.000000 0.000000
vn 0.000000 0.000000 0.000000
vn 0.000000 0.000000 0.000000
vn 0.000000 0.000000 0.000000
vn 0.000000 0.000000 0.000000
vn 0.000000 0.000000 0.000000
vn 0.000000 0.000000 0.000000
vn 0.000000 0.000000 0.000000
vn 0.000000 0.000000 0.000000
vn 0.000000 0.000000 0.000000
vn 0.000000 0.000000 0.000000
vn 0.000000 0.000000 0.000000
vn 0.000000 0.000000 0.000000
vn 0.000000 0.000000 0.000000
vn 0.000000 0.000000 0.000000
vn 0.000000 0.000000 0.000000
s off
g pCube12
usemtl initialShadingGroup
f 1/63/1 2/64/2 4/65/3 3/66/4
f 9/15/5 10/16/6 11/17/7 12/18/8
f 5/5/9 6/6/10 8/8/11 7/7/12
f 7/7/13 8/8/14 2/10/15 1/9/16
f 2/2/17 8/11/18 6/12/19 4/4/20
f 7/13/21 1/1/22 3/3/23 5/14/24
f 3/66/25 4/65/26 10/67/27 9/68/28
f 4/4/29 6/6/30 11/17/31 10/16/32
f 6/6/33 5/5/34 12/18/35 11/17/36
f 5/5/37 3/3/38 9/15/39 12/18/40
f 13/19/41 14/20/42 16/21/43 15/22/44
f 25/23/45 26/24/46 27/25/47 28/26/48
f 17/27/49 18/28/50 20/29/51 19/30/52
f 19/30/53 20/29/54 14/31/55 13/32/56
f 14/20/57 20/33/58 18/34/59 16/21/60
f 19/35/61 13/19/62 15/22/63 17/36/64
f 15/22/65 16/21/66 22/37/67 21/38/68
f 16/21/69 18/28/70 23/39/71 22/37/72
f 18/28/73 17/27/74 24/40/75 23/39/76
f 17/27/77 15/22/78 21/38/79 24/40/80
f 21/38/81 22/37/82 26/24/83 25/23/84
f 22/37/85 23/39/86 27/25/87 26/24/88
f 23/39/89 24/40/90 28/26/91 27/25/92
f 24/40/93 21/38/94 25/23/95 28/26/96
f 29/41/97 30/42/98 32/43/99 31/44/100
f 41/45/101 42/46/102 43/47/103 44/48/104
f 33/49/105 34/50/106 36/51/107 35/52/108
f 35/52/109 36/51/110 30/53/111 29/54/112
f 30/42/113 36/55/114 34/56/115 32/43/116
f 35/57/117 29/41/118 31/44/119 33/58/120
f 31/44/121 32/43/122 38/59/123 37/60/124
f 32/43/125 34/50/126 39/61/127 38/59/128
f 34/50/129 33/49/130 40/62/131 39/61/132
f 33/49/133 31/44/134 37/60/135 40/62/136
f 37/60/137 38/59/138 42/46/139 41/45/140
f 38/59/141 39/61/142 43/47/143 42/46/144
f 39/61/145 40/62/146 44/48/147 43/47/148
f 40/62/149 37/60/150 41/45/151 44/48/152
